<?xml version="1.0" encoding="UTF-8"?>
<svg id="Layer_2" data-name="Layer 2" xmlns="http://www.w3.org/2000/svg" viewBox="0 0 65.07 92.7">
  <defs>
    <style>
      .cls-1 {
        fill: #119f52;
      }

      .cls-2 {
        opacity: .61;
      }
    </style>
  </defs>
  <g id="arte">
    <g>
      <g>
        <g class="cls-2">
          <path class="cls-1" d="m35.12,33.39c-.26.31-.54.61-.83.9-1.95,1.95-4.3,3.25-6.78,3.9l-.05-12.75c0-1.11-.46-2.14-1.2-2.88-.68-.68-1.61-1.11-2.64-1.13h-.07c-2.15,0-3.88,1.76-3.88,3.91l.05,12.83c-1.37-.36-2.7-.92-3.93-1.69-1-.6-1.95-1.34-2.81-2.21-5.88-5.88-5.88-15.43,0-21.31,5.88-5.88,15.43-5.88,21.31,0,5.59,5.59,5.87,14.49.83,20.41Z"/>
        </g>
        <path class="cls-1" d="m40.36,6.91C31.14-2.3,16.13-2.3,6.92,6.91c-9.22,9.22-9.22,24.22,0,33.44,2.59,2.59,5.66,4.46,8.91,5.6,1.29.44,2.6.78,3.93,1l-.02-4.25c-1.34-.27-2.66-.68-3.93-1.24-2.16-.94-4.18-2.3-5.94-4.06-7.59-7.59-7.59-19.95,0-27.54,7.59-7.59,19.95-7.59,27.54,0,6.82,6.82,7.51,17.49,2.07,25.1-.61.86-1.3,1.67-2.07,2.44-.18.18-.36.35-.54.52.23.15.44.32.63.51.74.74,1.19,1.77,1.2,2.88v.55c.57-.47,1.13-.97,1.66-1.51,1.08-1.08,2.04-2.24,2.87-3.47,6.22-9.2,5.27-21.84-2.87-29.98Zm-12.83,35.79l.02,4.24c1.15-.19,2.27-.47,3.38-.82l-.02-4.43c-1.1.44-2.23.78-3.38,1.01Z"/>
      </g>
      <path class="cls-1" d="m35.12,33.39c-.26.31-.54.61-.83.9-1.95,1.95-4.3,3.25-6.78,3.9l.02,4.51.02,4.24.04,9.01c0,.47.19.89.5,1.2.3.29.7.48,1.14.49h.06c.93,0,1.69-.83,1.69-1.78l-.04-9.74-.02-4.43v-.48c0-2.15,1.73-3.9,3.88-3.91.03,0,.05,0,.07,0,.74,0,1.43.23,2,.62.18-.17.37-.34.54-.52.77-.77,1.46-1.59,2.07-2.44-1.26-.96-2.77-1.51-4.36-1.57Zm29.95,32.47l-.02-3.96-.05-13.37c0-2.08-.82-4.03-2.29-5.5-1.48-1.48-3.44-2.29-5.52-2.29-.08,0-.15,0-.19,0-1.28.03-2.51.37-3.59.98-.38-1.13-1.02-2.18-1.89-3.04-1.49-1.49-3.46-2.3-5.56-2.29h-.15c-.9.02-1.77.19-2.58.51-.52.2-1.02.46-1.49.77-.38-.74-.87-1.41-1.45-2-.25-.25-.52-.48-.8-.7-1.26-.96-2.77-1.51-4.36-1.57-.06,0-.12,0-.18,0h-.17c-1.2,0-2.33.28-3.35.77l-.04-8.72c0-2.1-.87-4.15-2.35-5.64-1.44-1.44-3.34-2.25-5.36-2.28h-.17c-4.3.03-7.79,3.55-7.77,7.85l.05,11.13.02,4.97.02,4.49.02,3.76c-1.41-1.2-3.24-1.88-5.1-1.87-.8,0-1.6.13-2.37.38h0s-.01,0-.01,0c-4.1,1.33-6.35,5.76-5.02,9.86l2.95,9.08v.02s.02.02.02.02l2.8,8.3c1.26,3.71,3.37,7.13,6.14,9.89,4.55,4.55,10.54,7.14,16.87,7.3h.01c.26,0,.53,0,.78,0h.01l5.55-.02c1.52,0,3.03-.14,4.48-.4,3.23-.55,6.29-1.7,9.12-3.39,7.59-4.55,12.17-11.61,12.9-19.89.1-.83.11-2.11.11-2.12h0s0-1.03,0-1.03Zm-4.01,2.73c-.63,7.49-4.88,13.28-11.01,16.95-2.35,1.41-4.97,2.4-7.78,2.89-1.24.22-2.52.33-3.82.33l-5.55.03c-.23,0-.46,0-.69,0-5.46-.14-10.48-2.44-14.19-6.16-2.31-2.3-4.1-5.15-5.19-8.36l-2.8-8.3-2.95-9.08c-.67-2.04.45-4.24,2.5-4.91.4-.12.8-.19,1.19-.19,1.04,0,2.04.41,2.77,1.14.42.42.75.94.95,1.55l2.48,7.63.14.43c.08.24.2.43.35.58.26.27.62.39.97.39.71,0,1.41-.51,1.41-1.4l-.06-15.13-.02-4.25-.02-4.52-.05-12.83c0-2.15,1.73-3.9,3.88-3.91h.07c1.03.01,1.96.44,2.64,1.13.74.74,1.19,1.77,1.2,2.88l.05,12.75.02,4.51.02,4.24.04,9.01c0,.47.19.89.5,1.2.3.29.7.48,1.14.49h.06c.93,0,1.69-.83,1.69-1.78l-.04-9.74-.02-4.43v-.48c0-2.15,1.73-3.9,3.88-3.91.03,0,.05,0,.07,0,.74,0,1.43.23,2,.62.23.15.44.32.63.51.74.74,1.19,1.77,1.2,2.88v.55l.07,16.08c0,.47.19.89.5,1.2.3.29.7.48,1.14.49h.06c.94,0,1.7-.84,1.69-1.78l-.06-13.5c0-2.14,1.66-3.99,3.81-4.04h.07c1.08,0,2.06.43,2.77,1.14.7.7,1.14,1.67,1.14,2.74l.07,16.08c0,.47.19.89.5,1.19.31.31.74.5,1.2.5.94,0,1.69-.77,1.69-1.7l-.05-11.55c0-2.14,1.66-3.99,3.81-4.04h.07c1.08,0,2.07.43,2.77,1.14.7.7,1.14,1.67,1.14,2.74l.06,13.38v3.96s.02,1.03.02,1.03c0,.34-.03,1.36-.09,1.68Zm-30.13-22.46l-.02-4.43c-1.1.44-2.23.78-3.38,1.01l.02,4.24.04,9.01c0,.47.19.89.5,1.2.3.29.7.48,1.14.49h.06c.93,0,1.69-.83,1.69-1.78l-.04-9.74Zm0,0l-.02-4.43c-1.1.44-2.23.78-3.38,1.01l.02,4.24.04,9.01c0,.47.19.89.5,1.2.3.29.7.48,1.14.49h.06c.93,0,1.69-.83,1.69-1.78l-.04-9.74Z"/>
    </g>
  </g>
</svg>