<?xml version="1.0" encoding="UTF-8"?>
<svg id="Layer_2" data-name="Layer 2" xmlns="http://www.w3.org/2000/svg" viewBox="0 0 26.36 19.65">
  <defs>
    <style>
      .cls-1 {
        fill: #524f5e;
      }
    </style>
  </defs>
  <g id="arte">
    <g>
      <path class="cls-1" d="m5.32,18.65H.5c-.28,0-.5.22-.5.5s.22.5.5.5h4.82c.28,0,.5-.22.5-.5s-.22-.5-.5-.5Z"/>
      <g>
        <path class="cls-1" d="m4.32,8.42h1.8c.28,0,.5-.22.5-.5s-.22-.5-.5-.5h-1.8c-.28,0-.5.22-.5.5s.22.5.5.5Z"/>
        <path class="cls-1" d="m25.69,7.69c-.36-.85-.85-1.64-1.46-2.33l.37-.37.17.17c.1.1.26.1.36,0l.5-.5c.1-.1.1-.26,0-.36l-1.19-1.19c-.1-.1-.26-.1-.36,0l-.5.5c-.1.1-.1.26,0,.36l.17.17-.37.37c-.68-.58-1.43-1.05-2.26-1.4-.81-.34-1.67-.56-2.54-.64v-.61h.4c.14,0,.25-.11.25-.25V.25c0-.14-.11-.25-.25-.25h-2.4c-.14,0-.25.11-.25.25v1.35c0,.14.11.25.25.25h.4v.61c-1.43.13-2.79.62-3.99,1.42h-5.51c-.28,0-.5.22-.5.5s.22.5.5.5h4.29c-.23.22-.44.45-.64.7-.46.56-.85,1.18-1.15,1.83h-2.06s0,0,0,0c-.28,0-.5.22-.5.5,0,.28.22.5.5.5h2.72s.13-.3.13-.3c.28-.68.67-1.32,1.14-1.89.47-.57,1.01-1.07,1.62-1.48,1.1-.74,2.35-1.18,3.67-1.29h1.2c.81.06,1.6.26,2.36.57.91.38,1.72.93,2.42,1.63.7.7,1.25,1.51,1.63,2.42.4.94.6,1.93.6,2.96s-.2,2.02-.6,2.96c-.38.91-.93,1.72-1.63,2.42-.7.7-1.51,1.25-2.42,1.63-.94.4-1.93.6-2.96.6H7.45c-.28,0-.5.22-.5.5s.22.5.5.5h10.31c1.16,0,2.29-.23,3.35-.68,1.02-.43,1.95-1.05,2.74-1.84.79-.79,1.41-1.71,1.84-2.74.45-1.06.68-2.19.68-3.35s-.23-2.29-.68-3.35Z"/>
        <path class="cls-1" d="m11.37,15.17c-.59-.92-.98-1.93-1.14-3.01l-.06-.43H2.91c-.28,0-.5.22-.5.5s.22.5.5.5h6.41c.15.77.41,1.51.77,2.21h-4.65c-.28,0-.5.22-.5.5s.22.5.5.5h6.44l-.5-.77Z"/>
        <path class="cls-1" d="m3.55,14.95h-1.29c-.28,0-.5.22-.5.5s.22.5.5.5h1.29c.28,0,.5-.22.5-.5s-.22-.5-.5-.5Z"/>
        <path class="cls-1" d="m13.18,15.63c.59.59,1.29,1.06,2.06,1.39.8.34,1.65.51,2.52.51s1.72-.17,2.52-.51c.77-.33,1.46-.79,2.06-1.39.59-.59,1.06-1.29,1.39-2.06.34-.8.51-1.65.51-2.52s-.17-1.72-.51-2.52c-.33-.77-.79-1.46-1.39-2.06-.59-.59-1.29-1.06-2.06-1.39-.8-.34-1.65-.51-2.52-.51s-1.72.17-2.52.51c-.77.33-1.46.79-2.06,1.39-.59.59-1.06,1.29-1.39,2.06-.34.8-.51,1.65-.51,2.52s.17,1.72.51,2.52c.33.77.79,1.46,1.39,2.06Zm-.51-6.73c.28-.66.68-1.25,1.18-1.76.51-.51,1.1-.91,1.76-1.18.68-.29,1.4-.43,2.15-.43s1.47.15,2.15.43c.66.28,1.25.68,1.76,1.18.51.51.91,1.1,1.18,1.76.29.68.43,1.4.43,2.15s-.15,1.47-.43,2.15c-.28.66-.68,1.25-1.18,1.76-.51.51-1.1.91-1.76,1.18-.68.29-1.4.43-2.15.43s-1.47-.15-2.15-.43c-.66-.28-1.25-.68-1.76-1.18-.51-.51-.91-1.1-1.18-1.76-.29-.68-.43-1.4-.43-2.15s.15-1.47.43-2.15Z"/>
        <path class="cls-1" d="m17.76,12.08c.15,0,.29-.03.41-.09l2.18,2.17c.07.07.17.11.26.11s.19-.04.27-.11c.15-.15.15-.38,0-.53l-2.18-2.17c.06-.13.09-.27.09-.41,0-.44-.27-.81-.66-.96v-2.97c0-.21-.17-.37-.37-.37s-.37.17-.37.37v2.97c-.38.15-.66.52-.66.96,0,.57.46,1.03,1.03,1.03Z"/>
      </g>
    </g>
  </g>
</svg>