<?xml version="1.0" encoding="UTF-8"?>
<svg id="Layer_2" data-name="Layer 2" xmlns="http://www.w3.org/2000/svg" viewBox="0 0 23.19 19.81">
  <defs>
    <style>
      .cls-1 {
        fill: #e0e0e0;
      }
    </style>
  </defs>
  <g id="arte">
    <path class="cls-1" d="m22.85,19.12h-7.98c.07-.04.15-.08.22-.12.08-.05.15-.09.23-.14,0,0,0,0,0,0,1.17-.78,2-1.96,2.34-3.34.31-1.25.18-2.59-.36-3.75-.42-.9-1.08-1.68-1.88-2.24.35-.1.64-.2.87-.29v.16c.02.18.17.32.35.32,0,0,.01,0,.02,0,.19-.01.33-.17.32-.36l-.03-.43c.73-.42,1.25-1.26,1.12-1.88-.26-1.22-1.79-1.42-3.27-1.61-.22-.03-.44-.06-.65-.09-1.04-.15-2.05-.63-3.12-1.13-.53-.25-1.07-.5-1.65-.74-.82-.33-1.42-.33-1.91-.21V.34c0-.19-.15-.34-.34-.34s-.34.15-.34.34v3.18c-.25.16-.48.41-.73.66-.49.52-1,1.05-1.75,1.1-.39.02-.72-.23-.98-.77-.22-.46-.3-.94-.31-.95,0-.02,0-.04-.02-.06v-.23c0-.12.03-1.87-.17-2.96-.03-.19-.21-.31-.4-.28-.19.03-.31.21-.28.4.19,1.04.16,2.81.16,2.83,0,0,0,0,0,0v.46s0,.02,0,.04c0,.84-.04,1.26-.22,1.94-.68,2.54.91,3.75.98,3.8,0,0,.01.01.02.01.11.07.23.13.35.18l.03.45c.01.18.16.32.34.32,0,0,.01,0,.02,0,.19-.01.33-.17.32-.36v-.21c.29.05.59.07.87.07.16,0,.31,0,.45-.01v.2c.02.18.17.32.35.32,0,0,.01,0,.02,0,.19-.01.33-.17.32-.36v-.22c.63-.08,2.01-.23,2.58-.27-1.03.77-1.76,1.87-2.08,3.15-.23.92-.22,1.86,0,2.75,0,.02,0,.03.01.05.14.51.35,1.01.63,1.48.53.88,1.26,1.58,2.14,2.05H.34c-.19,0-.34.15-.34.34s.15.34.34.34h11.71s.08,0,.12,0c.04,0,.07,0,.11,0h10.56c.19,0,.34-.15.34-.34s-.15-.34-.34-.34Zm-13.8-1.1l-.16-1.8,1.26-.85,2.21,1.13.4,1.48-.92,1.12c-.29-.02-.58-.07-.86-.14-.71-.18-1.36-.5-1.92-.95Zm4.13-5.91l1.06,2.08-1.66,1.65-2.08-1.06.37-2.31,2.31-.36Zm.08,6.34l.94.23c-.47.21-.96.35-1.46.4l.52-.64Zm1.8-.26l-1.65-.41-.38-1.41,1.74-1.74,1.16.29.64,1.54c-.36.69-.87,1.28-1.51,1.73Zm1.93-2.84c-.02.07-.04.14-.06.2l-.36-.87.56-.69c.01.45-.03.91-.14,1.36Zm.16-8.57c-.9,1.21-3.56,1.25-5.69,1.06-.47-.04-.96-.06-1.43-.06.03-.04.06-.08.09-.12.28-.31.77-.51,1.43-.55,1.76-.12,2.72-.43,3.09-1,.02,0,.04,0,.06,0,1.02.13,1.99.26,2.44.67Zm-12.91-.81s.06,0,.1,0c1.02-.06,1.67-.75,2.2-1.31.22-.24.44-.46.62-.57,0,0,.02,0,.02,0,.33-.14.65-.22,1.04-.19-.24.17-.39.33-.41.34-.13.14-.13.35.01.49.07.06.15.1.24.1.09,0,.18-.04.25-.11,0,0,.43-.44.91-.54.17.07.34.14.5.22-.27.17-.44.35-.45.37-.13.14-.13.35.01.49.07.06.15.1.24.1s.18-.04.25-.1c0,0,.35-.36.77-.47.06.03.12.06.18.09.21.1.42.2.62.29-.24.16-.4.32-.43.35-.13.14-.13.35,0,.48.07.06.15.1.24.1.09,0,.18-.04.25-.1,0,0,.37-.38.79-.46.51.21,1.03.38,1.56.48-.35.19-1.03.36-2.26.44-1.66.11-2.11.98-2.23,1.37-.69.01-1.36.05-1.95.08-1.14.06-2.31.13-2.63-.07-.33-.2-.58-.4-.79-.58-.38-.31-.71-.59-1.28-.64.02-.21.06-.45.13-.69.07-.26.12-.49.16-.71.29.43.72.79,1.33.79Zm-.77,2.99c-.09-.07-.73-.61-.84-1.68.31.04.51.21.84.48.22.18.49.41.87.63.29.18.76.23,1.38.23.47,0,1.02-.03,1.64-.07,1.24-.07,2.65-.15,4.04-.03,1.62.14,2.96.11,3.99-.1.8-.16,1.44-.43,1.9-.81-.15.29-.46.62-.84.78,0,0-.01,0-.02,0-.01,0-1.19.59-2.63.68-.62.04-1.44-.02-2.31-.07-.56-.04-1.13-.07-1.67-.09h0c-.37,0-.72,0-1.05.01-.7.04-2.82.29-3.02.32-.04,0-.08,0-.12,0-.52.03-1.5.08-2.14-.31Zm3.86,3.99c.31-1.25,1.08-2.31,2.15-3,.02.17.17.3.34.3,0,0,.01,0,.02,0,.19-.01.33-.17.32-.36l-.02-.25c.42.02.85.05,1.28.07,0,0,.01,0,.02,0l.02.28c.01.18.16.32.34.32,0,0,.01,0,.02,0,.19-.01.33-.17.32-.36v-.2c.59.03,1.14.06,1.61.03v.16c.02.18.17.32.35.32,0,0,.01,0,.02,0,.19-.01.33-.17.32-.36v-.16c.95.5,1.74,1.32,2.2,2.31.15.32.26.65.34,1l-.96,1.2-1.17-.29-1.13-2.22.24-.5c.08-.17.01-.38-.16-.46-.17-.08-.38-.01-.46.16l-.24.49-2.47.39-.9-.78c-.14-.12-.36-.11-.48.03-.12.14-.11.36.04.48l.88.76-.4,2.46-1.32.9-1.17-.45c-.16-.74-.15-1.51.03-2.27Zm.57,3.76c-.13-.21-.24-.43-.33-.66l.63.24.09.96c-.14-.17-.27-.36-.38-.55Z"/>
  </g>
</svg>