<?xml version="1.0" encoding="UTF-8"?>
<svg id="Layer_2" data-name="Layer 2" xmlns="http://www.w3.org/2000/svg" viewBox="0 0 40.37 30.09">
  <defs>
    <style>
      .cls-1 {
        fill: #e0e0e0;
      }
    </style>
  </defs>
  <g id="arte">
    <g>
      <path class="cls-1" d="m8.14,28.56H.77c-.42,0-.77.34-.77.77s.34.77.77.77h7.38c.42,0,.77-.34.77-.77s-.34-.77-.77-.77Z"/>
      <g>
        <path class="cls-1" d="m6.62,12.9h2.76c.42,0,.77-.34.77-.77s-.34-.77-.77-.77h-2.76c-.42,0-.77.34-.77.77s.34.77.77.77Z"/>
        <path class="cls-1" d="m39.33,11.78c-.55-1.31-1.3-2.5-2.24-3.57l.56-.56.25.25c.15.15.4.15.55,0l.76-.76c.15-.15.15-.4,0-.55l-1.82-1.82c-.15-.15-.4-.15-.55,0l-.76.76c-.15.15-.15.4,0,.55l.25.25-.57.57c-1.03-.89-2.19-1.61-3.46-2.14-1.25-.53-2.55-.85-3.89-.98v-.94h.61c.21,0,.39-.17.39-.39V.39c0-.21-.17-.39-.39-.39h-3.68c-.21,0-.39.17-.39.39v2.07c0,.21.17.39.39.39h.61v.94c-2.19.2-4.28.95-6.11,2.18h-8.44c-.42,0-.77.34-.77.77s.34.77.77.77h6.56c-.34.34-.67.69-.98,1.07-.7.86-1.29,1.8-1.76,2.81h-3.15s0,0,0,0c-.42,0-.76.34-.77.76,0,.42.34.77.76.77h4.17s.2-.46.2-.46c.43-1.04,1.02-2.02,1.74-2.9.71-.87,1.55-1.64,2.48-2.27,1.68-1.14,3.6-1.81,5.62-1.97h1.84c1.25.1,2.46.39,3.61.88,1.39.59,2.63,1.43,3.7,2.5,1.07,1.07,1.91,2.32,2.5,3.7.61,1.44.91,2.96.91,4.53s-.31,3.1-.91,4.53c-.59,1.39-1.43,2.63-2.5,3.7-1.07,1.07-2.32,1.91-3.7,2.5-1.44.61-2.96.91-4.53.91h-15.79c-.42,0-.77.34-.77.77s.34.77.77.77h15.79c1.78,0,3.5-.35,5.13-1.04,1.57-.66,2.98-1.61,4.19-2.82,1.21-1.21,2.16-2.62,2.82-4.19.69-1.63,1.04-3.35,1.04-5.13s-.35-3.5-1.04-5.13Z"/>
        <path class="cls-1" d="m17.41,23.23c-.91-1.4-1.5-2.96-1.74-4.61l-.1-.65H4.46c-.42,0-.77.34-.77.77s.34.77.77.77h9.81c.24,1.18.63,2.31,1.17,3.38h-7.13c-.42,0-.77.34-.77.77s.34.77.77.77h9.86l-.77-1.18Z"/>
        <path class="cls-1" d="m5.44,22.89h-1.98c-.42,0-.77.34-.77.77s.34.77.77.77h1.98c.42,0,.77-.34.77-.77s-.34-.77-.77-.77Z"/>
        <path class="cls-1" d="m20.18,23.93c.91.91,1.97,1.63,3.15,2.12,1.22.52,2.52.78,3.86.78s2.64-.26,3.86-.78c1.18-.5,2.24-1.21,3.15-2.12.91-.91,1.63-1.97,2.12-3.15.52-1.22.78-2.52.78-3.86s-.26-2.64-.78-3.86c-.5-1.18-1.21-2.24-2.12-3.15-.91-.91-1.97-1.63-3.15-2.12-1.22-.52-2.52-.78-3.86-.78s-2.64.26-3.86.78c-1.18.5-2.24,1.21-3.15,2.12-.91.91-1.63,1.97-2.12,3.15-.52,1.22-.78,2.52-.78,3.86s.26,2.64.78,3.86c.5,1.18,1.21,2.24,2.12,3.15Zm-.78-10.3c.43-1.01,1.04-1.91,1.81-2.69.78-.78,1.68-1.39,2.69-1.81,1.04-.44,2.15-.66,3.29-.66s2.25.22,3.29.66c1.01.43,1.91,1.04,2.69,1.81.78.78,1.39,1.68,1.81,2.69.44,1.04.66,2.15.66,3.29s-.22,2.25-.66,3.29c-.43,1.01-1.04,1.91-1.81,2.69-.78.78-1.68,1.39-2.69,1.81-1.04.44-2.15.66-3.29.66s-2.25-.22-3.29-.66c-1.01-.43-1.91-1.04-2.69-1.81-.78-.78-1.39-1.68-1.81-2.69-.44-1.04-.66-2.15-.66-3.29s.22-2.25.66-3.29Z"/>
        <path class="cls-1" d="m27.2,18.49c.23,0,.44-.05.63-.13l3.33,3.33c.11.11.26.17.41.17s.29-.06.41-.17c.22-.22.22-.59,0-.81l-3.33-3.33c.08-.19.13-.41.13-.63,0-.67-.42-1.24-1-1.47v-4.56c0-.32-.26-.57-.57-.57s-.57.26-.57.57v4.56c-.59.23-1,.8-1,1.47,0,.87.71,1.58,1.58,1.58Z"/>
      </g>
    </g>
  </g>
</svg>