<?xml version="1.0" encoding="UTF-8"?>
<svg xmlns="http://www.w3.org/2000/svg" viewBox="0 0 30.4 42.07">
  <defs>
    <style>
      .cls-1 {
        fill: #e5373a;
      }

      .cls-2 {
        fill: #fa9401;
      }

      .cls-3 {
        isolation: isolate;
      }

      .cls-4 {
        fill: #d1d3d4;
      }

      .cls-4, .cls-5 {
        mix-blend-mode: multiply;
      }

      .cls-6 {
        mix-blend-mode: screen;
      }

      .cls-7 {
        fill: #ffaa01;
      }

      .cls-8 {
        fill: #f9d511;
      }

      .cls-9 {
        fill: #231f20;
      }

      .cls-5 {
        fill: #e6e7e8;
      }
    </style>
  </defs>
  <g class="cls-3">
    <g id="Layer_2" data-name="Layer 2">
      <g id="arte">
        <g>
          <polygon class="cls-1" points="8.72 42.07 6.03 36.49 0 37.89 7.64 21.94 16.36 26.11 8.72 42.07"/>
          <polygon class="cls-5" points="15.83 25.86 8.39 41.38 8.72 42.07 16.36 26.11 15.83 25.86"/>
          <polygon class="cls-1" points="21.68 42.07 24.38 36.49 30.4 37.89 22.76 21.94 14.04 26.11 21.68 42.07"/>
          <polygon class="cls-5" points="14.58 25.86 22.01 41.38 21.68 42.07 14.04 26.11 14.58 25.86"/>
          <path class="cls-4" d="m23.23,22.92c-2.05,2.07-4.89,3.35-8.03,3.35-1.62,0-3.16-.34-4.56-.96-1.3-.58-2.48-1.39-3.47-2.39l-1.22,2.54c.71.05,1.56-.07,2.05.26.39.26.6.84.83,1.39.22.51.45.98.85,1.15.82.34,2.1-.78,2.99-.61.75.15,1.41,1.32,2.17,1.63l.36-.74.36.74c.76-.31,1.42-1.48,2.17-1.63.89-.18,2.17.95,2.99.61.83-.35.94-2.05,1.68-2.54.49-.33,1.34-.21,2.05-.26l-1.22-2.54Z"/>
          <g>
            <circle class="cls-8" cx="15.2" cy="14.41" r="11.61"/>
            <path class="cls-7" d="m27.91,16.94c.17-.86,1.7-1.61,1.7-2.53s-1.53-1.67-1.7-2.53c-.18-.89.95-2.17.61-2.99-.17-.4-.64-.63-1.15-.85-.55-.23-1.13-.45-1.39-.83-.5-.75.05-2.36-.59-2.99-.26-.26-.7-.32-1.16-.34-.66-.02-1.39.04-1.83-.25-.25-.17-.43-.47-.58-.81-.31-.67-.55-1.5-1.1-1.73-.82-.34-2.1.78-2.99.61-.86-.17-1.62-1.7-2.53-1.7s-1.67,1.53-2.53,1.7c-.1.02-.2.02-.3.01-.86-.06-1.95-.92-2.68-.62-.83.35-.94,2.05-1.68,2.54-.75.5-2.36-.05-2.99.58-.63.63-.09,2.25-.59,2.99-.5.74-2.2.85-2.54,1.68-.3.73.56,1.82.62,2.68,0,.11,0,.21-.01.3-.17.86-1.7,1.62-1.7,2.53s1.53,1.67,1.7,2.53c.18.89-.95,2.17-.61,2.99.23.55,1.06.79,1.73,1.1.34.16.64.34.81.58.29.44.23,1.17.25,1.83.02.47.07.9.34,1.16.63.63,2.24.09,2.99.59.39.26.6.84.83,1.39.22.51.45.98.85,1.15.82.34,2.1-.78,2.99-.61.86.17,1.62,1.7,2.53,1.7s1.67-1.53,2.53-1.7c.89-.18,2.17.95,2.99.61.83-.35.94-2.05,1.68-2.54.75-.5,2.36.05,2.99-.59s.09-2.25.59-2.99c.5-.74,2.2-.85,2.54-1.68.34-.82-.78-2.1-.61-2.99Zm-12.71,8.79c-1.62,0-3.16-.34-4.56-.96-1.62-.72-3.04-1.8-4.16-3.15-.53-.64-.99-1.34-1.38-2.09-.78-1.54-1.23-3.28-1.23-5.12,0-2.13.59-4.12,1.61-5.82.96-1.59,2.29-2.93,3.89-3.89,1.7-1.02,3.69-1.61,5.82-1.61,1.84,0,3.58.44,5.12,1.23.75.38,1.45.85,2.09,1.38,1.35,1.12,2.43,2.54,3.15,4.16.62,1.4.96,2.94.96,4.56,0,6.24-5.08,11.32-11.32,11.32Z"/>
            <circle class="cls-7" cx="15.2" cy="14.41" r="10.34"/>
            <g>
              <path class="cls-2" d="m26.97,14.85c0-3.23-1.36-6.16-3.55-8.22,1.92,2.03,3.1,4.77,3.1,7.78,0,6.24-5.08,11.32-11.32,11.32-3.01,0-5.75-1.18-7.78-3.1,2.07,2.18,4.99,3.55,8.22,3.55,6.24,0,11.32-5.08,11.32-11.32Z"/>
              <path class="cls-2" d="m5.31,14.94c0-5.71,4.63-10.34,10.34-10.34,3.07,0,5.83,1.34,7.72,3.46-1.89-2.43-4.84-4-8.16-4-5.71,0-10.34,4.63-10.34,10.34,0,2.64.99,5.05,2.62,6.87-1.36-1.75-2.17-3.95-2.17-6.34Z"/>
            </g>
            <path class="cls-2" d="m21.35,13.39l-3.73-.66c-.11-.02-.21-.09-.26-.2l-1.61-3.34c-.13-.27-.51-.27-.64,0l-1.61,3.34c-.05.1-.15.18-.26.2l-3.73.66c-.29.05-.4.42-.17.62l2.79,2.45c.09.08.14.21.11.33l-.66,3.42c-.06.29.25.52.51.38l3.16-1.65c.1-.05.23-.05.33,0l3.16,1.65c.26.14.57-.09.51-.38l-.66-3.42c-.02-.12.02-.25.11-.33l2.79-2.45c.22-.2.12-.56-.17-.62Z"/>
            <path class="cls-8" d="m21.12,12.99l-3.73-.66c-.11-.02-.21-.09-.26-.2l-1.61-3.34c-.13-.27-.51-.27-.64,0l-1.61,3.34c-.05.1-.15.18-.26.2l-3.73.66c-.29.05-.4.42-.17.62l2.79,2.45c.09.08.14.21.11.33l-.66,3.42c-.06.29.25.52.51.38l3.16-1.65c.1-.05.23-.05.33,0l3.16,1.65c.26.14.57-.09.51-.38l-.66-3.42c-.02-.12.02-.25.11-.33l2.79-2.45c.22-.2.12-.56-.17-.62Z"/>
            <g class="cls-6">
              <path class="cls-9" d="m21.82,2.82l-1.49,1.49-15.22,15.22-1.49,1.49c-.67-.31-1.5-.54-1.73-1.1-.34-.82.78-2.1.61-2.99-.17-.86-1.7-1.61-1.7-2.53s1.53-1.67,1.7-2.53c.02-.1.02-.2.01-.3l2.99-2.99L12.37,1.71c.1,0,.21,0,.3-.01.86-.17,1.62-1.7,2.53-1.7s1.67,1.53,2.53,1.7c.89.18,2.17-.95,2.99-.61.55.23.79,1.06,1.1,1.73Z"/>
              <path class="cls-9" d="m27.37,8.05L8.84,26.58c-.23-.55-.45-1.13-.83-1.39-.75-.5-2.36.05-2.99-.59-.26-.26-.32-.7-.34-1.16l1.81-1.81,15.93-15.93,1.81-1.81c.47.01.9.07,1.16.34.63.63.09,2.25.59,2.99.26.39.84.6,1.39.83Z"/>
            </g>
          </g>
        </g>
      </g>
    </g>
  </g>
</svg>