<?xml version="1.0" encoding="UTF-8"?>
<svg id="Layer_2" data-name="Layer 2" xmlns="http://www.w3.org/2000/svg" viewBox="0 0 117.37 108.31">
  <defs>
    <style>
      .cls-1 {
        fill: #119f52;
      }
    </style>
  </defs>
  <g id="arte">
    <g>
      <polygon class="cls-1" points="45.88 32.6 45.88 32.6 45.88 32.6 45.88 32.6 45.88 32.6"/>
      <rect class="cls-1" x="18.51" y="27.97" width="0" height="0"/>
      <polygon class="cls-1" points="50.37 82.73 50.37 82.73 50.37 82.73 50.37 82.73 50.37 82.73"/>
      <path class="cls-1" d="m51.26,82.43s0,0,0,0c0,0,0,0-.01,0h.02Z"/>
      <rect class="cls-1" x="20.76" y="67.46" width="0" transform="translate(-49.29 58.83) rotate(-65.87)"/>
      <rect class="cls-1" x="7.93" y="65.29" width="0" height="0"/>
      <rect class="cls-1" x="23.51" y="54.22" width="0" height="0"/>
      <polygon class="cls-1" points="14.86 47.61 14.86 47.61 14.87 47.61 14.86 47.61 14.86 47.61"/>
      <path class="cls-1" d="m113.04,50.48l-34.31,52.97c-.19.29-.42.52-.69.71-.41.28-.9.44-1.42.48-.52.03-1.06-.06-1.56-.28-.12-.05-.24-.11-.36-.18l-35.23-22.64,6.23,1.06h0l1.61.27c1.06.18,2.11.13,3.05-.13.3-.08.6-.18.88-.3,1.32-.55,2.4-1.51,3.04-2.76l.03-.06c.04-.07.07-.14.1-.22.23-.52.4-1.09.46-1.69h0s3.41-30.86,3.41-30.86l13.75-21.23c.19-.29.42-.52.69-.71.41-.28.9-.44,1.42-.48.52-.04,1.06.06,1.56.28.12.05.24.12.36.19l35.86,21.75h0c.33.2.59.44.82.7.33.4.55.88.63,1.37.08.49.03.98-.17,1.43-.05.11-.11.22-.18.33h0Zm3.47-4.21c-.59-1.03-1.47-1.96-2.6-2.65h0l-35.86-21.75c-.28-.17-.56-.32-.86-.45-.79-.35-1.61-.56-2.42-.64-1.23-.12-2.43.07-3.49.54-1.07.46-2,1.21-2.65,2.21l-9.34,14.43,2.59-23.43c.08-.72.02-1.43-.15-2.12-.26-1.03-.78-1.99-1.49-2.82-.71-.82-1.62-1.51-2.67-1.97-.58-.26-1.21-.46-1.87-.57l-23.43-3.97c-1.08-.18-2.05.48-2.16,1.47-.11,1,.68,1.95,1.76,2.14h0l23.43,3.97c.28.05.54.13.79.24.59.26,1.09.7,1.42,1.22.17.26.29.54.36.84.07.29.1.59.06.9l-3.53,31.88s0,.01,0,.01v.02s-3.46,31.24-3.46,31.24h0c-.03.26-.1.5-.2.72-.02.04-.04.08-.06.12h0c-.26.53-.74.95-1.31,1.18h-.01c-.12.06-.24.1-.36.13h0c-.41.11-.84.13-1.3.06l-1.61-.27h0s-10.45-1.77-10.45-1.77l-29.05-4.92c-.28-.05-.55-.13-.8-.24-.59-.26-1.09-.7-1.42-1.23-.16-.26-.28-.54-.36-.84-.07-.29-.1-.59-.06-.9L10.95,5.93c.03-.26.1-.5.2-.73.24-.53.66-.96,1.2-1.23.27-.13.56-.22.87-.27.31-.05.63-.04.97.01l4.08.69c1.09.18,2.05-.48,2.16-1.47.11-1-.68-1.95-1.76-2.14L14.59.11c-.78-.13-1.54-.14-2.27-.04-1.09.16-2.09.56-2.91,1.16-.83.6-1.49,1.39-1.91,2.33-.24.53-.4,1.1-.46,1.7L.04,68.42c-.08.72-.02,1.43.15,2.12.26,1.03.77,1.99,1.48,2.81.71.82,1.62,1.51,2.66,1.98.58.26,1.21.45,1.87.57l24.82,4.2c.16.29.4.54.7.74h0l40.97,26.33.04.03c.28.17.56.32.86.45.79.35,1.61.56,2.42.64,1.23.11,2.43-.07,3.5-.54,1.07-.47,1.99-1.22,2.64-2.22l34.31-52.97c.16-.24.3-.5.42-.76.32-.71.48-1.46.49-2.21.02-1.13-.28-2.27-.87-3.31h0Z"/>
      <rect class="cls-1" x="94.62" y="50.16" width="0" height="0"/>
      <path class="cls-1" d="m49.2,35.74c-2.44-9.84-12.4-15.84-22.25-13.4-1.44.36-2.83.89-4.15,1.58-3.64,1.9-6.54,4.99-8.2,8.75-.1.22-.18.42-.26.62-3.8,9.41.74,20.11,10.15,23.92,8.92,3.6,19.1-.28,23.36-8.9.09-.19.19-.39.29-.61,1.69-3.75,2.07-7.96,1.06-11.94Zm-.94-.01s-.02.02-.03.03l-4.77,5.27-5.17-.54-3.69-6.42,2.14-4.78,6.98-1.47c2.18,2.19,3.75,4.92,4.53,7.91Zm-15.9-13l3.55,6.19-2.14,4.78-7.24,1.52-3.85-3.5.76-7.11h0c2.75-1.41,5.83-2.06,8.92-1.89Zm-17.26,11.11s.03,0,.04,0l6.91-1.45,3.9,3.55-.78,7.31-4.53,2.59-6.49-2.91h-.02c-.49-3.07-.15-6.19.98-9.07Zm5.22,19.86s0-.02,0-.03l.76-7.05,4.57-2.61,6.67,2.99,1.1,5.14-4.78,5.28c-3.05-.49-5.92-1.77-8.32-3.72h0Zm20.5,1.16s-.03-.01-.04-.02l-6.47-2.9-1.09-5.1,4.93-5.45,5.25.55,3.49,6.07s.04.05.06.08c-1.4,2.76-3.51,5.1-6.12,6.77Z"/>
      <path class="cls-1" d="m94.15,58.03c-2.44-9.84-12.4-15.84-22.25-13.4-1.44.36-2.83.89-4.15,1.58-3.64,1.9-6.54,4.99-8.2,8.75-.1.22-.18.42-.26.62-3.8,9.41.74,20.11,10.15,23.92,8.92,3.6,19.1-.28,23.36-8.9.09-.19.19-.39.29-.61,1.69-3.75,2.07-7.96,1.06-11.94Zm-.94-.01s-.02.02-.03.03l-4.77,5.27-5.17-.54-3.69-6.42,2.14-4.78,6.98-1.47c2.18,2.19,3.75,4.92,4.53,7.91Zm-15.9-13l3.55,6.19-2.14,4.78-7.24,1.52-3.85-3.5.76-7.11h0c2.75-1.41,5.83-2.06,8.92-1.89Zm-17.26,11.11s.03,0,.04,0l6.91-1.45,3.9,3.55-.78,7.31-4.53,2.59-6.49-2.91h-.02c-.49-3.07-.15-6.19.98-9.07Zm5.22,19.86s0-.02,0-.03l.76-7.05,4.57-2.61,6.67,2.99,1.1,5.14-4.78,5.28c-3.05-.49-5.92-1.77-8.32-3.72h0Zm20.5,1.16s-.03-.01-.04-.02l-6.47-2.9-1.09-5.1,4.93-5.45,5.25.55,3.49,6.07s.04.05.06.08c-1.4,2.76-3.51,5.1-6.12,6.77Z"/>
    </g>
  </g>
</svg>