<?xml version="1.0" encoding="UTF-8"?>
<svg id="Layer_2" data-name="Layer 2" xmlns="http://www.w3.org/2000/svg" viewBox="0 0 142.78 86.09">
  <defs>
    <style>
      .cls-1 {
        fill: #b01657;
      }
    </style>
  </defs>
  <g id="arte">
    <g>
      <g>
        <path class="cls-1" d="m101.51,12.73c-16.72,5.24-26.05,23.1-20.81,39.81,5.24,16.72,23.1,26.05,39.81,20.81,16.72-5.24,26.05-23.1,20.81-39.81-5.24-16.72-23.1-26.05-39.81-20.81Zm36.99,19.65l-1.75,2.45-9.29-3.48-.23-9.93,2.87-.84c3.65,3.09,6.58,7.09,8.4,11.8Zm-10.63-13.51l-1.97.58c-.56.18-.95.69-.96,1.34l.25,10.75-4.17,2.66-12.8-3.84-1.58-5.03,6.74-8.47c.36-.48.37-1.13,0-1.63l-1.22-1.66c5.68.23,11.13,2.11,15.71,5.3Zm-7.84,17.4l-.4,13.42-11.92,3.74-7.98-10.8,8-10.05,12.3,3.69Zm-24.48-18.35c2.04-1.25,4.25-2.28,6.64-3.02,2.38-.75,4.79-1.17,7.18-1.3l1.79,2.43-6.18,7.77-9.51-2.85.08-3.02Zm-2.31,1.58l-.06,2.07c-.01.61.37,1.14.96,1.33l10.34,3.1,1.58,5.03-8.32,10.45-4.95.2-5.96-9.01c-.35-.48-.96-.69-1.54-.5h0s-1.93.64-1.93.64c1.94-5.23,5.34-9.89,9.88-13.31Zm-10.73,15.99l2.84-.95,5.48,8.29-5.65,8.16-2.84-1.02c-1.19-4.91-1.07-9.87.16-14.48Zm10.22,28.65l.02,2.05c-4.3-3.39-7.71-8-9.61-13.52l1.97.7c.27.09.56.09.82,0s.53-.26.72-.52l6.16-8.9,4.94-.2,8.26,11.17-1.86,5-10.32,2.87c-.62.12-1.08.66-1.09,1.34Zm16.03,8.3c-4.92-.38-9.64-2-13.72-4.63l-.03-3,9.56-2.65,6.03,7.9-1.84,2.38Zm11.07-1.26c-2.75.86-5.53,1.29-8.27,1.34l1.28-1.66c.38-.52.34-1.22-.02-1.63l-6.53-8.56,1.87-5.01,12.41-3.89,4.39,3.05-.47,10.67c-.07.63.3,1.22.94,1.45l1.96.62c-2.28,1.52-4.81,2.76-7.56,3.62Zm9.81-5.29l-2.86-.9.44-9.93,9.36-3.28,1.69,2.48c-1.86,4.49-4.81,8.51-8.63,11.63Zm8.41-15.99c-.38-.53-1.06-.72-1.56-.49l-10.2,3.57-4.38-3.04.41-13.89,4.17-2.66,10.18,3.81c.28.09.56.09.83,0s.52-.26.71-.51l1.2-1.68c1.59,5.62,1.43,11.35-.18,16.59l-1.17-1.72Z"/>
        <path class="cls-1" d="m107.27,18c.12,0,.24-.02.35-.05.46-.14.79-.57.8-1.07,0-.63-.5-1.14-1.12-1.15-3.18-.03-6.23.92-8.82,2.77-.51.36-.63,1.07-.27,1.58.36.51,1.07.63,1.58.27,2.2-1.56,4.79-2.37,7.49-2.35Z"/>
        <path class="cls-1" d="m85.21,48.13c.6-.19.93-.82.74-1.42-.81-2.57-.78-5.29.08-7.84.2-.59-.12-1.24-.71-1.44-.59-.2-1.24.12-1.44.71-1.01,3.01-1.05,6.21-.1,9.25.19.6.82.93,1.42.74Z"/>
        <path class="cls-1" d="m99.31,65.5c-.5-.37-1.21-.27-1.59.23-.37.5-.27,1.21.23,1.59,2.55,1.9,5.58,2.92,8.76,2.95.12,0,.24-.02.35-.05.46-.14.79-.57.8-1.07,0-.63-.5-1.14-1.12-1.15-2.7-.03-5.27-.89-7.44-2.5Z"/>
        <path class="cls-1" d="m133.43,54.81c-.86,2.56-2.48,4.74-4.68,6.3-.51.36-.63,1.07-.27,1.58.29.41.81.57,1.26.43.11-.03.22-.09.32-.16,2.59-1.84,4.5-4.41,5.51-7.42.2-.59-.12-1.24-.71-1.44-.59-.2-1.24.12-1.44.71Z"/>
        <path class="cls-1" d="m133.67,31.75c.19.6.82.93,1.42.74s.93-.82.74-1.42c-.95-3.03-2.8-5.64-5.36-7.54-.5-.37-1.21-.27-1.59.23-.37.5-.27,1.21.23,1.59,2.17,1.61,3.74,3.82,4.54,6.4Z"/>
        <path class="cls-1" d="m104.73,42.37l1.94-2.2c.41-.47.37-1.19-.1-1.6-.47-.41-1.19-.37-1.6.1l-2.44,2.77c-.43.49-.45,1.22-.05,1.73l5.72,7.38c.3.39.8.53,1.24.39.13-.04.25-.1.35-.19.5-.38.59-1.1.2-1.59l-5.26-6.79Z"/>
      </g>
      <g>
        <path class="cls-1" d="m76.33,16.13L57.97,1.84c-.37-.29-.81-.48-1.4-.58L42.04.03c-.58-.1-1.16.09-1.56.53-.4.44-.55,1.05-.39,1.62,1.27,4.67-1.37,8.77-6.72,10.44h-.03c-4.07,1.27-9.51.78-11.47-4.73-.2-.56-.67-.98-1.25-1.11-.57-.13-1.16.04-1.49.37l-11.42,9.48c-.33.33-.58.74-.72,1.19L.08,40.03c-.27.86.18,1.8,1.02,2.13l12.74,4.98c.43.17.9.16,1.32-.03.42-.19.75-.53.91-.96l3.24-8.48,14.79,47.22c.29.91,1.26,1.42,2.16,1.14l36.58-11.47c.91-.28,1.41-1.26,1.13-2.17l-14.79-47.21,7.5,5.12c.38.26.84.36,1.3.27.46-.09.85-.35,1.1-.73l7.62-11.35c.5-.75.34-1.78-.38-2.33ZM13.8,44.03l-10.66-4.17.89-2.89,10.88,4.16-1.11,2.9Zm57.09,28.11l-34.38,10.78-1-3.19,34.39-10.77,1,3.19Zm-1.86-5.93l-34.39,10.77-1-3.19,34.39-10.77,1,3.19Zm-10.97-45.29c-.61-.41-1.41-.4-1.99.04-.59.44-.84,1.2-.62,1.91l11.72,37.41-34.39,10.77-11.72-37.41c-.22-.7-.86-1.19-1.6-1.21-.19,0-.39.02-.57.08-.49.15-.9.53-1.1,1.03l-1.88,4.91-11.06-4.22,4.77-15.46,10.15-8.43c2.55,4.96,8.14,6.98,14.4,5.04,6.26-1.92,9.73-6.81,8.99-12.37l13.02,1.11,12.85,10-6.66,9.76-4.33-2.96Zm9.28,6.33l-2.57-1.75,6.56-9.61,2.39,1.86-6.38,9.5Z"/>
        <path class="cls-1" d="m43.67,26.21l-11.29,3.54c-.76.24-1.18,1.04-.94,1.8s1.04,1.18,1.8.94l9.41-2.95-3.32,15.8c-.16.78.33,1.54,1.11,1.7.25.05.5.04.72-.03.48-.15.87-.55.98-1.08l3.7-17.61c.16-.59,0-1.21-.42-1.66-.46-.48-1.13-.65-1.76-.46Z"/>
      </g>
    </g>
  </g>
</svg>