<?xml version="1.0" encoding="UTF-8"?>
<svg id="Layer_2" data-name="Layer 2" xmlns="http://www.w3.org/2000/svg" viewBox="0 0 111.67 101.1">
  <defs>
    <style>
      .cls-1 {
        fill: #b01657;
      }
    </style>
  </defs>
  <g id="arte">
    <g>
      <g>
        <path class="cls-1" d="m59.34,9.69l-3.86-1.01c-.91-.24-1.84.25-2.17,1.15-.31.86-1.21,1.34-2.08,1.11-.88-.23-1.43-1.09-1.28-2,.16-.94-.41-1.82-1.32-2.06l-4.21-1.1c-.92-.24-1.85.25-2.17,1.14-.31.87-1.21,1.35-2.08,1.11-.88-.23-1.43-1.08-1.28-1.99.16-.94-.41-1.82-1.32-2.06l-4.22-1.11c-.91-.24-1.84.26-2.16,1.15-.31.87-1.21,1.34-2.09,1.11-.87-.23-1.42-1.08-1.27-1.98.16-.94-.41-1.83-1.32-2.07L22.64.06c-1.02-.27-2.08.35-2.35,1.38L.06,78.55c-.27,1.03.34,2.09,1.37,2.36l7.64,2c1,.26,2.01-.31,2.32-1.31,1.46-4.85,6.41-7.66,11.27-6.38,4.85,1.27,7.78,6.14,6.68,11.1-.23,1.01.38,2.01,1.37,2.27l7.42,1.95c1.03.27,2.08-.35,2.35-1.38l2.71-10.32.87-3.33c-.81-.7-1.7-1.27-2.64-1.71l-.78,2.96-2.78,10.62-5.43-1.42c.43-3.07-.29-6.06-1.88-8.49-1.55-2.39-3.94-4.23-6.87-5.06-.09-.03-.18-.06-.27-.08-6.08-1.6-12.27,1.64-14.55,7.44l-5.65-1.48,4.4-16.74,4.29,1.13.76-2.89-4.3-1.13L22.91,3.22l1.92.5c.11,2.02,1.49,3.77,3.52,4.3,2.02.53,4.08-.32,5.17-2.02l2.37.62c.11,2.02,1.49,3.77,3.52,4.3,2.02.53,4.08-.31,5.17-2.01l2.37.62c.11,2.01,1.49,3.76,3.52,4.29,2.03.54,4.09-.31,5.18-2.01l1.91.5-9.21,35.08-1.3,4.96,3.95-3.29,1.31-4.96,8.41-32.05c.27-1.03-.35-2.09-1.38-2.36Z"/>
        <polygon class="cls-1" points="32.01 64.86 29.19 67.21 27.02 66.64 27.52 64.72 27.77 63.75 28.47 63.93 32.01 64.86"/>
        <rect class="cls-1" x="18.35" y="59.72" width="2.99" height="7.01" transform="translate(-46.34 66.36) rotate(-75.3)"/>
        <path class="cls-1" d="m34.86,28.25c-8.16-2.14-16.53,2.76-18.67,10.91-2.14,8.16,2.75,16.53,10.91,18.67,3.2.84,6.43.6,9.31-.5h.01c3.15-1.21,5.87-3.43,7.65-6.38.74-1.22,1.32-2.57,1.7-4.02,2.14-8.16-2.75-16.54-10.91-18.68Zm8.41,15.44c-.05.82-.17,1.65-.39,2.48-.22.83-.51,1.61-.88,2.35h-.07l-1.01-2.87,2.29-2,.06.04Zm-1.51-6.52c.48.88.86,1.82,1.12,2.8l-4.09,3.57-1.29-.34-1.68-4.75.61-1.05,4.34-.1.99-.13Zm-6.39-5.6c1.62.62,3.04,1.56,4.22,2.73v.02l-3.06.07-1.2-2.79.04-.03Zm-6.91.57l.39-1.19c.94-.16,1.9-.23,2.88-.17h-.01s2.17,5.05,2.17,5.05l-.6,1.04-5.19.39-.84-1.08,1.2-4.04Zm6.14,11.86l-3.27,2.86-3.82-2.55,1.06-4.07,4.59-.35,1.44,4.11Zm-9.3-11.84l.04.02-.87,2.91-3.04.27-.02-.03c1.07-1.32,2.4-2.4,3.89-3.17Zm-6.22,7.76c.12-.47.28-.92.45-1.37l5.4-.49.84,1.1-1.24,4.71-1.27.55-4.46-3.08c.07-.47.15-.95.28-1.42Zm1.66,9.82h-.05c-.92-1.41-1.55-2.99-1.83-4.67l.03-.02,2.52,1.74-.67,2.95Zm5.69,3.72l-.71.68c-.93-.44-1.79-.99-2.56-1.63l1.21-5.31,1.26-.54,4.33,2.9v1.2s-3.53,2.7-3.53,2.7Zm7.76,1.44c-1.6.43-3.31.55-5.02.29l-.02-.04,2.42-1.84,2.63,1.56v.03Zm-1.25-4.26v-1.21s3.78-3.32,3.78-3.32l1.3.34,1.45,4.1.41.96c-.69.73-1.47,1.35-2.31,1.88l-4.63-2.75Z"/>
        <rect class="cls-1" x="42.48" y="17.93" width="5.97" height="2.99" transform="translate(15.13 58.47) rotate(-75.3)"/>
        <rect class="cls-1" x="42.01" y="24.34" width="3.54" height="2.99" transform="translate(7.68 61.62) rotate(-75.3)"/>
        <rect class="cls-1" x="26.99" y="13.87" width="5.97" height="2.99" transform="translate(7.51 40.45) rotate(-75.3)"/>
        <rect class="cls-1" x="26.52" y="20.27" width="3.54" height="2.99" transform="translate(.06 43.6) rotate(-75.3)"/>
        <rect class="cls-1" x="31.8" y="15.49" width="6.53" height="2.99" transform="translate(9.73 46.59) rotate(-75.3)"/>
        <rect class="cls-1" x="31.89" y="21.9" width="2.99" height="2.99" transform="translate(2.28 49.74) rotate(-75.3)"/>
        <rect class="cls-1" x="35.94" y="21.81" width="5.97" height="2.99" transform="translate(6.5 55.04) rotate(-75.3)"/>
        <rect class="cls-1" x="38.83" y="15.4" width="3.54" height="2.99" transform="translate(13.95 51.88) rotate(-75.3)"/>
      </g>
      <path class="cls-1" d="m111.22,46.95l-2.56-3.07c-.6-.72-1.64-.86-2.43-.32-.75.52-1.76.38-2.34-.31-.58-.7-.53-1.71.12-2.37.67-.67.72-1.72.13-2.44l-2.79-3.35c-.61-.73-1.65-.86-2.43-.32-.76.52-1.76.38-2.34-.31-.58-.7-.53-1.72.12-2.37.67-.67.72-1.72.12-2.44l-2.79-3.35c-.6-.73-1.65-.87-2.42-.32-.76.52-1.77.38-2.35-.32-.58-.69-.53-1.71.12-2.35.68-.67.73-1.73.13-2.45l-2.56-3.08c-.68-.81-1.89-.92-2.71-.24l-31.93,26.56-3.96,3.29-1.3,4.96,3.95-3.29,34.34-28.55,1.26,1.52c-1.08,1.7-.97,3.93.37,5.54,1.34,1.61,3.51,2.12,5.38,1.37l1.57,1.88c-1.08,1.71-.98,3.93.36,5.54,1.34,1.62,3.51,2.12,5.38,1.37l1.57,1.88c-1.08,1.71-.98,3.94.36,5.55,1.34,1.61,3.52,2.12,5.39,1.37l1.26,1.52-44.06,36.65-2.84-3.41-2.29,1.91,2.83,3.41-13.3,11.07-3.59-4.32c4.29-4.51,4.6-11.49.58-16.33-.47-.56-.97-1.07-1.51-1.52-.81-.7-1.7-1.27-2.64-1.71-3.77-1.79-8.32-1.57-12.02.83l-3.73-4.49,3.52-2.93,2.82-2.35-3.54-.93-.95.79-4.57,3.8c-.82.68-.93,1.9-.25,2.71l.98,1.18,4.07,4.89c.66.8,1.82.92,2.64.29.05-.04.11-.08.16-.12,3.04-2.25,6.98-2.43,10.09-.71.94.52,1.81,1.21,2.55,2.08.03.03.06.07.09.1,3.2,3.86,2.76,9.53-1.02,12.92-.77.69-.86,1.86-.2,2.65l4.9,5.89c.68.82,1.89.93,2.71.25l61.3-50.98c.81-.68.93-1.9.25-2.72Zm-67.15,4l-7.65,6.37c3.15-1.2,5.87-3.42,7.65-6.37Z"/>
      <path class="cls-1" d="m38.97,59.07l-6.96,5.79-3.54-.93,7.94-6.6h.01c3.15-1.21,5.87-3.43,7.65-6.38l4.28-3.56-1.3,4.96-5.78,4.81"/>
      <rect class="cls-1" x="53.71" y="72.74" width="2.99" height="7.01" transform="translate(-35.99 52.93) rotate(-39.75)"/>
      <polygon class="cls-1" points="47.05 64.12 46.12 67.66 44.57 65.8 46.86 63.89 47.05 64.12"/>
      <polygon class="cls-1" points="51.34 69.28 49.05 71.18 46.12 67.66 47.05 64.12 51.34 69.28"/>
      <path class="cls-1" d="m78.53,69.36c6.48-5.39,7.37-15.05,1.98-21.53-5.39-6.48-15.05-7.37-21.53-1.98-6.48,5.39-7.37,15.05-1.98,21.53s15.05,7.37,21.53,1.98Zm-7.45.32c-.98.19-1.98.24-2.97.19l-2.17-4.94.7-.99,5.01-.5.86,1.03-1.21,4.18-.22,1.02Zm7.29-4.41c-.51.64-1.1,1.25-1.76,1.79s-1.36,1.01-2.08,1.4l-.06-.04.85-2.92,3.03-.3.02.06Zm1.85-3.25l-5.4.53-.86-1.03,1.4-4.84,1.1-.5,3.6,2.44.88.48c-.12,1-.36,1.98-.72,2.92Zm-1.23-11.2c.96,1.45,1.57,3.04,1.86,4.67l-.02.02-2.53-1.72.65-2.97h.05Zm-13.54-5.06c1.64-.45,3.34-.55,5.01-.31l.02.04-2.39,1.86-2.64-1.54v-.04Zm4.28,4.09l3.32-2.59,1.01-.73c.86.41,1.68.92,2.44,1.53h0s-1.17,5.36-1.17,5.36l-1.09.5-4.46-2.7-.05-1.37Zm-9.89-.72c.33-.35.67-.68,1.05-.99s.77-.59,1.17-.85h0s4.67,2.74,4.67,2.74l.05,1.38-3.75,3.12-1.35-.3-1.84-5.1Zm5.36,7.48l3.23-2.69,3.93,2.38-1.21,4.18-4.33.43-1.62-4.3Zm-7.48-4.41h.04s1.04,2.88,1.04,2.88l-2.26,2.01-.04-.03c.07-1.68.48-3.34,1.22-4.87Zm-.82,8.56l4.07-3.62,1.34.29,1.84,4.87-.69.98-4.45.14-.97.14c-.5-.9-.87-1.84-1.13-2.81Zm3.34,5.63l3.04-.1,1.23,2.8-.02.02c-1.56-.58-3.01-1.47-4.26-2.68v-.05Z"/>
      <rect class="cls-1" x="91.28" y="45.31" width="5.97" height="2.99" transform="translate(-8.13 71.1) rotate(-39.75)"/>
      <rect class="cls-1" x="87.4" y="49.54" width="3.54" height="2.99" transform="translate(-12.02 68.83) rotate(-39.75)"/>
      <rect class="cls-1" x="81.04" y="33" width="5.97" height="2.99" transform="translate(-2.63 61.71) rotate(-39.75)"/>
      <rect class="cls-1" x="77.16" y="37.23" width="3.54" height="2.99" transform="translate(-6.51 59.43) rotate(-39.75)"/>
      <rect class="cls-1" x="83.96" y="37.28" width="6.53" height="2.99" transform="translate(-4.63 64.74) rotate(-39.75)"/>
      <rect class="cls-1" x="80.64" y="41.51" width="2.99" height="2.99" transform="translate(-8.51 62.47) rotate(-39.75)"/>
      <rect class="cls-1" x="83.71" y="44.66" width="5.97" height="2.99" transform="translate(-9.47 66.11) rotate(-39.75)"/>
      <rect class="cls-1" x="90.01" y="40.43" width="3.54" height="2.99" transform="translate(-5.59 68.39) rotate(-39.75)"/>
    </g>
  </g>
</svg>