<?xml version="1.0" encoding="UTF-8"?>
<svg id="Layer_2" data-name="Layer 2" xmlns="http://www.w3.org/2000/svg" viewBox="0 0 99.14 97.78">
  <defs>
    <style>
      .cls-1 {
        fill: #119f52;
      }
    </style>
  </defs>
  <g id="arte">
    <g>
      <g>
        <path class="cls-1" d="m40.5,51.79c-2.08.28-4.04,1.29-5.03,3.21-.5.98-.93,2-1.4,2.99-.44.94.96,1.76,1.4.82.43-.92.85-1.85,1.3-2.77.81-1.7,2.34-2.43,4.16-2.68,1.03-.14.59-1.7-.43-1.56h0Z"/>
        <path class="cls-1" d="m32.33,60.32c.89-1.9,1.69-3.87,2.68-5.71,1.79-3.34,5.59-3.42,8.89-3.81,1.49-.17,2.5-.66,3.11-2.1.54-1.29,1.34-2.56.76-3.97-.46-1.13-1.54-2.17-2.28-3.12-1.17-1.5-2.21-3.11-2.28-5.08-.06-1.54.6-2.93,1.13-4.33.46-1.21.91-2.41,1.37-3.62.55-1.47-1.8-2.1-2.35-.65-.75,1.97-1.61,3.94-2.24,5.95-1.25,4.03,1,7.32,3.35,10.34.29.37.85.85,1.01,1.3.16.44-.13.88-.31,1.3-.19.44-.37,1.24-.76,1.46-.35.19-1,.14-1.39.18-3.45.39-6.94.77-9.29,3.67-1.59,1.97-2.45,4.68-3.52,6.95-.66,1.41,1.44,2.65,2.1,1.23h0Z"/>
        <path class="cls-1" d="m58.64,45.99c2.08-.28,4.04-1.29,5.03-3.21.49-.96.92-1.96,1.37-2.94.44-.94-.96-1.76-1.4-.82-.42.91-.84,1.82-1.27,2.73-.81,1.7-2.34,2.43-4.16,2.68-1.03.14-.59,1.7.43,1.56h0Z"/>
        <path class="cls-1" d="m55.77,69.86c.75-1.97,1.61-3.94,2.24-5.95,1.25-4.03-1-7.32-3.35-10.34-.29-.37-.85-.85-1.01-1.3-.16-.44.13-.88.31-1.3.19-.44.37-1.24.76-1.46.35-.19,1-.14,1.39-.18,3.45-.39,6.94-.77,9.29-3.67,1.59-1.97,2.45-4.68,3.52-6.95.66-1.41-1.44-2.65-2.1-1.23-.89,1.9-1.69,3.87-2.68,5.71-1.79,3.34-5.59,3.42-8.89,3.81-1.49.17-2.5.66-3.11,2.1-.54,1.29-1.34,2.56-.76,3.97.46,1.13,1.54,2.17,2.28,3.12,1.17,1.5,2.21,3.11,2.28,5.08.06,1.54-.6,2.93-1.13,4.33-.46,1.21-.91,2.41-1.37,3.62-.55,1.47,1.8,2.1,2.35.65h0Z"/>
        <path class="cls-1" d="m70.16,38.36c1.91.52,3.8-1.3,2.86-3.22-.37-.75-1.06-1.06-1.78-1.36-1.8-.76-3.61-1.52-5.41-2.28-5.65-2.38-11.3-4.76-16.95-7.15-1.41-.59-2.82-1.31-4.26-1.8-1.34-.45-2.83.27-3.12,1.71-.26,1.31.58,2.24,1.69,2.73,4.36,1.91,8.78,3.7,13.16,5.55,4.61,1.94,9.21,3.88,13.82,5.82"/>
        <g>
          <path class="cls-1" d="m54.6,75.26c1.91.52,3.8-1.3,2.86-3.22-.37-.75-1.06-1.06-1.78-1.36-1.8-.76-3.61-1.52-5.41-2.28-5.65-2.38-11.3-4.76-16.95-7.15-1.41-.59-2.82-1.31-4.26-1.8-1.34-.45-2.83.27-3.12,1.71-.26,1.31.58,2.24,1.69,2.73,4.36,1.91,8.78,3.7,13.16,5.55,4.61,1.94,9.21,3.88,13.82,5.82"/>
          <path class="cls-1" d="m52.23,71.67c.82.34,1.63.69,2.45,1.03"/>
        </g>
      </g>
      <g>
        <path class="cls-1" d="m47.75,9.09c-16.5.56-31.21,11.33-36.56,26.99-1.52,4.44-2.19,9.16-2.08,13.85.02,1.03.87,1.98,1.95,1.95,3.33-.1,6.66-.19,9.99-.29-.46-1.11-.92-2.22-1.38-3.32-4.58,4.85-9.16,9.69-13.74,14.54-.67.71-1.34,1.42-2.01,2.13,1.08.29,2.17.57,3.25.86-6.17-15.59-3.39-33.68,7.67-46.38C25.17,7.54,41.31,1.71,56.83,4.56c9.75,1.79,18.58,6.74,25.29,14.02,1.7,1.85,4.45-.91,2.75-2.75C72.21,2.08,52.33-3.4,34.44,2.13,18.9,6.94,6.47,19.55,1.92,35.18c-3.01,10.34-2.46,21.62,1.5,31.63.51,1.29,2.16,2.02,3.25.86,4.58-4.85,9.16-9.69,13.74-14.54.67-.71,1.34-1.42,2.01-2.13,1.12-1.18.36-3.37-1.38-3.32-3.33.1-6.66.19-9.99.29.65.65,1.3,1.3,1.95,1.95-.36-14.79,8.54-28.86,22.4-34.36,3.95-1.57,8.11-2.43,12.35-2.58,2.5-.08,2.51-3.98,0-3.89h0Z"/>
        <path class="cls-1" d="m51.38,88.69c16.5-.56,31.21-11.33,36.56-26.99,1.52-4.44,2.19-9.16,2.08-13.85-.02-1.03-.87-1.98-1.95-1.95-3.33.1-6.66.19-9.99.29.46,1.11.92,2.22,1.38,3.32,4.58-4.85,9.16-9.69,13.74-14.54.67-.71,1.34-1.42,2.01-2.13-1.08-.29-2.17-.57-3.25-.86,6.17,15.59,3.39,33.68-7.67,46.38-10.33,11.85-26.47,17.68-41.99,14.84-9.75-1.79-18.58-6.74-25.29-14.02-1.7-1.85-4.45.91-2.75,2.75,12.66,13.74,32.54,19.22,50.43,13.69,15.55-4.81,27.97-17.42,32.52-33.05,3.01-10.34,2.46-21.62-1.5-31.63-.51-1.29-2.16-2.02-3.25-.86-4.58,4.85-9.16,9.69-13.74,14.54-.67.71-1.34,1.42-2.01,2.13-1.12,1.18-.36,3.37,1.38,3.32,3.33-.1,6.66-.19,9.99-.29-.65-.65-1.3-1.3-1.95-1.95.36,14.79-8.54,28.86-22.4,34.36-3.95,1.57-8.11,2.43-12.35,2.58-2.5.08-2.51,3.98,0,3.89h0Z"/>
      </g>
    </g>
  </g>
</svg>